<svg width="34" height="30" viewBox="0 0 34 30" fill="none" xmlns="http://www.w3.org/2000/svg">
<path d="M30.4406 2.11408C26.6023 -1.0647 20.6723 -0.587231 17 3.09519C13.3277 -0.587231 7.39766 -1.07124 3.55938 2.11408C-1.43437 6.25435 -0.703898 13.0044 2.85547 16.5821L14.5031 28.2704C15.1672 28.9375 16.057 29.3103 17 29.3103C17.9496 29.3103 18.8328 28.9441 19.4969 28.2769L31.1445 16.5887C34.6972 13.0109 35.441 6.26089 30.4406 2.11408ZM28.8734 14.3779L17.2258 26.0662C17.0664 26.2231 16.9336 26.2231 16.7742 26.0662L5.12657 14.3779C2.70274 11.9448 2.21133 7.34011 5.61133 4.52106C8.19453 2.38225 12.1789 2.70275 14.6758 5.20784L17 7.54287L19.3242 5.20784C21.8344 2.68966 25.8187 2.38225 28.3887 4.51452C31.782 7.33357 31.2773 11.9644 28.8734 14.3779Z" fill="#FC295C"/>
</svg>
