<svg width="17" height="16" viewBox="0 0 17 16" fill="none" xmlns="http://www.w3.org/2000/svg">
<path d="M15.8094 5.34183L11.2591 4.67843L9.22528 0.554783C8.86088 -0.180248 7.80505 -0.189592 7.43753 0.554783L5.40374 4.67843L0.853398 5.34183C0.0373893 5.46018 -0.289637 6.46618 0.302125 7.04237L3.59419 10.2503L2.81556 14.782C2.6754 15.6011 3.53813 16.2147 4.2607 15.8316L8.33141 13.6919L12.4021 15.8316C13.1247 16.2116 13.9874 15.6011 13.8473 14.782L13.0686 10.2503L16.3607 7.04237C16.9524 6.46618 16.6254 5.46018 15.8094 5.34183ZM11.4646 9.7271L12.2028 14.0376L8.33141 12.0038L4.46003 14.0376L5.19818 9.7271L2.06495 6.67485L6.39416 6.04571L8.33141 2.1214L10.2686 6.04571L14.5979 6.67485L11.4646 9.7271Z" fill="#FC295C"/>
</svg>
