<svg width="1622" height="226" viewBox="0 0 1622 226" fill="none" xmlns="http://www.w3.org/2000/svg">
<path d="M38.08 104.04H149.76V139.24H38.08V104.04ZM41.6 225H0V113V1H163.52V35.88H41.6V225Z" fill="white"/>
<path d="M222.47 225V1H264.07V189.8H381.19V225H222.47Z" fill="white"/>
<path d="M414.032 225V1H455.632V225H414.032Z" fill="white"/>
<path d="M772.195 225V1H864.355C884.195 1 901.155 4.2 915.235 10.6C929.528 17 940.515 26.1733 948.195 38.12C955.875 50.0667 959.715 64.2533 959.715 80.68C959.715 97.1067 955.875 111.293 948.195 123.24C940.515 135.187 929.528 144.36 915.235 150.76C901.155 157.16 884.195 160.36 864.355 160.36H795.235L813.795 140.84V225H772.195ZM813.795 145.32L795.235 125.16H862.435C880.782 125.16 894.542 121.32 903.715 113.64C913.102 105.747 917.795 94.76 917.795 80.68C917.795 66.3867 913.102 55.4 903.715 47.72C894.542 40.04 880.782 36.2 862.435 36.2H795.235L813.795 15.72V145.32Z" fill="white"/>
<path d="M1001.26 225V1H1042.86V189.8H1159.98V225H1001.26Z" fill="white"/>
<path d="M1183.53 225L1284.33 1H1325.29L1426.41 225H1382.89L1296.17 23.08H1312.81L1226.41 225H1183.53ZM1229.93 173.16L1241.13 140.52H1362.09L1373.29 173.16H1229.93Z" fill="white"/>
<path d="M1492.65 225V136.36L1501.93 161.96L1404.65 1H1449.13L1527.21 130.6H1502.25L1580.97 1H1621.93L1524.65 161.96L1534.25 136.36V225H1492.65Z" fill="white"/>
<path d="M535.52 1H499.52L563.52 109L499.52 225H531.52L599.52 109L535.52 1Z" fill="#FC295C" stroke="#FC295C"/>
<path d="M679.519 1H715.519L655.519 109L715.519 225H683.519L615.519 109L679.519 1Z" fill="#FC295C" stroke="#FC295C"/>
</svg>
